<svg aria-hidden="true" style="position: absolute; width: 0; height: 0; overflow: hidden;" version="1.1" xmlns="http://www.w3.org/2000/svg" xmlns:xlink="http://www.w3.org/1999/xlink">
<defs>
<symbol id="icon-readbtn" viewBox="0 0 75 32">
<path fill="#d41443" style="fill: var(--color1, #d41443)" d="M4.47 19.636v-7.127h2.617c0.57 0 1.039 0.098 1.405 0.295 0.373 0.19 0.652 0.451 0.835 0.784 0.183 0.326 0.275 0.689 0.275 1.089 0 0.434-0.115 0.832-0.346 1.191-0.224 0.36-0.577 0.621-1.059 0.784l1.476 2.983h-1.497l-1.324-2.81h-1.079v2.81h-1.303zM5.773 15.869h1.232c0.434 0 0.753-0.105 0.957-0.316s0.305-0.489 0.305-0.835c0-0.339-0.102-0.611-0.305-0.815-0.197-0.204-0.519-0.305-0.967-0.305h-1.222v2.271zM12.929 19.759c-0.509 0-0.96-0.109-1.354-0.326s-0.703-0.523-0.927-0.916-0.336-0.849-0.336-1.364c0-0.523 0.109-0.988 0.326-1.395 0.224-0.407 0.529-0.723 0.916-0.947 0.394-0.231 0.855-0.346 1.385-0.346 0.495 0 0.933 0.109 1.313 0.326s0.675 0.516 0.886 0.896c0.217 0.373 0.326 0.791 0.326 1.252 0 0.075-0.003 0.153-0.010 0.234 0 0.081-0.003 0.166-0.010 0.255h-3.839c0.027 0.394 0.163 0.703 0.407 0.927 0.251 0.224 0.553 0.336 0.906 0.336 0.265 0 0.485-0.058 0.662-0.173 0.183-0.122 0.319-0.278 0.407-0.468h1.324c-0.095 0.319-0.255 0.611-0.479 0.876-0.217 0.258-0.489 0.462-0.815 0.611-0.319 0.149-0.682 0.224-1.089 0.224zM12.939 15.523c-0.319 0-0.601 0.092-0.845 0.275-0.244 0.177-0.4 0.448-0.468 0.815h2.515c-0.020-0.333-0.143-0.597-0.367-0.794s-0.502-0.295-0.835-0.295zM18.301 19.759c-0.434 0-0.791-0.068-1.069-0.204-0.278-0.143-0.485-0.329-0.621-0.56s-0.204-0.485-0.204-0.764c0-0.468 0.183-0.849 0.55-1.14s0.916-0.438 1.649-0.438h1.283v-0.122c0-0.346-0.098-0.601-0.295-0.764s-0.441-0.244-0.733-0.244c-0.265 0-0.496 0.065-0.692 0.193-0.197 0.122-0.319 0.305-0.367 0.55h-1.273c0.034-0.367 0.156-0.686 0.367-0.957 0.217-0.271 0.495-0.479 0.835-0.621 0.339-0.149 0.72-0.224 1.14-0.224 0.72 0 1.286 0.18 1.7 0.54s0.621 0.869 0.621 1.527v3.105h-1.11l-0.122-0.815c-0.149 0.271-0.36 0.495-0.631 0.672-0.265 0.177-0.608 0.265-1.028 0.265zM18.597 18.74c0.373 0 0.662-0.122 0.865-0.367 0.21-0.244 0.343-0.546 0.397-0.906h-1.11c-0.346 0-0.594 0.064-0.743 0.193-0.149 0.122-0.224 0.275-0.224 0.458 0 0.197 0.075 0.35 0.224 0.458s0.346 0.163 0.591 0.163zM24.758 19.759c-0.475 0-0.899-0.115-1.273-0.346s-0.669-0.546-0.886-0.947c-0.217-0.401-0.326-0.855-0.326-1.364s0.109-0.96 0.326-1.354c0.217-0.4 0.512-0.713 0.886-0.937 0.373-0.231 0.798-0.346 1.273-0.346 0.38 0 0.713 0.071 0.998 0.214s0.516 0.343 0.692 0.601v-2.973h1.303v7.331h-1.161l-0.143-0.723c-0.163 0.224-0.38 0.421-0.652 0.591-0.265 0.17-0.611 0.255-1.039 0.255zM25.033 18.618c0.421 0 0.764-0.139 1.028-0.417 0.272-0.285 0.407-0.648 0.407-1.089s-0.136-0.801-0.407-1.079c-0.265-0.285-0.608-0.428-1.028-0.428-0.414 0-0.757 0.139-1.028 0.417s-0.407 0.638-0.407 1.079 0.136 0.804 0.407 1.089c0.272 0.285 0.614 0.428 1.028 0.428zM31.505 19.636v-5.050h1.151l0.112 0.682c0.163-0.244 0.377-0.438 0.641-0.58 0.272-0.149 0.584-0.224 0.937-0.224 0.781 0 1.334 0.302 1.66 0.906 0.183-0.278 0.428-0.499 0.733-0.662 0.312-0.163 0.652-0.244 1.018-0.244 0.658 0 1.164 0.197 1.517 0.591s0.529 0.971 0.529 1.731v2.851h-1.303v-2.729c0-0.434-0.085-0.767-0.255-0.998-0.163-0.231-0.417-0.346-0.764-0.346-0.353 0-0.638 0.129-0.855 0.387-0.21 0.258-0.316 0.618-0.316 1.079v2.607h-1.303v-2.729c0-0.434-0.085-0.767-0.255-0.998s-0.431-0.346-0.784-0.346c-0.346 0-0.628 0.129-0.845 0.387-0.21 0.258-0.316 0.618-0.316 1.079v2.607h-1.303zM43.464 19.759c-0.489 0-0.93-0.112-1.324-0.336-0.387-0.224-0.696-0.533-0.927-0.927-0.224-0.401-0.336-0.862-0.336-1.385s0.115-0.981 0.346-1.375c0.231-0.4 0.54-0.713 0.927-0.937 0.394-0.224 0.835-0.336 1.324-0.336 0.482 0 0.916 0.112 1.303 0.336 0.394 0.224 0.703 0.536 0.927 0.937 0.231 0.394 0.346 0.852 0.346 1.375s-0.115 0.984-0.346 1.385c-0.224 0.394-0.533 0.703-0.927 0.927s-0.831 0.336-1.313 0.336zM43.464 18.628c0.339 0 0.635-0.126 0.886-0.377 0.251-0.258 0.377-0.638 0.377-1.14s-0.126-0.879-0.377-1.13c-0.251-0.258-0.543-0.387-0.876-0.387-0.346 0-0.645 0.129-0.896 0.387-0.244 0.251-0.367 0.628-0.367 1.13s0.122 0.882 0.367 1.14c0.251 0.251 0.546 0.377 0.886 0.377zM47.215 19.636v-5.050h1.161l0.122 0.947c0.183-0.326 0.431-0.584 0.743-0.774 0.319-0.197 0.692-0.295 1.12-0.295v1.375h-0.367c-0.285 0-0.54 0.044-0.764 0.132s-0.4 0.241-0.529 0.458c-0.122 0.217-0.183 0.519-0.183 0.906v2.301h-1.303zM53.616 19.759c-0.509 0-0.961-0.109-1.354-0.326s-0.703-0.523-0.927-0.916-0.336-0.849-0.336-1.364c0-0.523 0.109-0.988 0.326-1.395 0.224-0.407 0.529-0.723 0.916-0.947 0.394-0.231 0.855-0.346 1.385-0.346 0.495 0 0.933 0.109 1.313 0.326s0.675 0.516 0.886 0.896c0.217 0.373 0.326 0.791 0.326 1.252 0 0.075-0.003 0.153-0.010 0.234 0 0.081-0.003 0.166-0.010 0.255h-3.839c0.027 0.394 0.163 0.703 0.407 0.927 0.251 0.224 0.553 0.336 0.906 0.336 0.265 0 0.485-0.058 0.662-0.173 0.183-0.122 0.319-0.278 0.407-0.468h1.324c-0.095 0.319-0.255 0.611-0.479 0.876-0.217 0.258-0.489 0.462-0.815 0.611-0.319 0.149-0.682 0.224-1.089 0.224zM53.627 15.523c-0.319 0-0.601 0.092-0.845 0.275-0.244 0.177-0.401 0.448-0.468 0.815h2.515c-0.020-0.333-0.143-0.597-0.367-0.794s-0.502-0.295-0.835-0.295z"></path>
<path fill="none" stroke="#d41443" style="stroke: var(--color1, #d41443)" stroke-linejoin="round" stroke-linecap="round" stroke-miterlimit="4" stroke-width="1.4545" d="M70.266 13.818l3.22 2.909-3.22 2.909"></path>
</symbol>
</defs>
</svg>
